# Blender 4.4.3
# www.blender.org
mtllib palm1.mtl
o Object_70.001
v 19.810448 22.114159 -4.617159
v 20.667337 21.631315 -3.602040
v 22.288700 21.639772 -4.900573
v 21.503668 22.033037 -5.563526
v 21.657116 21.455740 -3.743691
v 16.421120 21.533047 -10.266916
v 17.871866 21.466713 -11.243582
v 16.521549 20.687723 -11.809590
v 19.227676 22.409462 -9.405039
v 17.217167 22.395571 -8.369643
v 18.439707 22.565172 -6.231990
v 20.518261 22.506775 -7.234743
v 8.691244 20.338381 -13.690220
v 9.132029 20.819290 -11.968895
v 9.334874 20.618299 -13.654117
v 13.026953 21.477463 -13.532646
v 11.273072 21.285133 -13.579051
v 11.102234 21.537859 -11.506635
v 12.870796 21.743834 -11.321040
v 15.783846 20.924112 -12.921405
v 15.618611 21.126001 -11.330330
v 16.514423 20.684492 -12.012881
v 16.572033 20.681372 -12.087698
v 15.025721 21.523111 -11.720850
v 15.743230 21.576578 -10.096533
v 8.478097 21.229292 -8.432907
v 8.912621 21.122780 -6.674546
v 11.369308 21.738245 -7.365940
v 10.572256 21.883047 -9.486580
v 13.256721 22.072104 -8.218781
v 12.167781 22.156878 -10.375784
v 8.092897 21.082989 -7.439596
v 9.234719 21.689342 -11.752699
v 7.624544 21.167982 -10.964825
v 7.882204 21.175314 -9.410183
v 10.366453 22.023071 -10.205047
v 10.608753 22.090790 -12.085999
v 15.707989 21.199574 -12.830135
v 15.704349 21.497730 -11.085453
v 16.727840 20.679081 -11.928523
v 12.638494 22.261801 -12.574594
v 13.168323 22.367592 -10.534658
v 10.534248 16.720211 -11.074039
v 10.685551 16.584869 -10.008931
v 12.238871 18.569309 -9.568521
v 11.688421 18.433100 -11.320521
v 15.060848 20.414282 -12.042105
v 15.429538 20.461864 -10.628385
v 16.215422 20.694880 -11.966294
v 13.238170 19.678675 -11.645575
v 13.590176 19.656290 -9.901217
v 11.266947 22.365330 -5.965154
v 10.680967 21.932114 -4.754033
v 12.522377 21.971947 -3.793459
v 12.814600 22.324911 -4.793691
v 11.208469 21.788332 -3.898684
v 15.072028 21.558508 -11.314490
v 16.549852 21.523861 -10.377592
v 16.521549 20.687723 -11.809590
v 15.416107 22.548250 -8.435302
v 13.658883 22.484419 -9.857440
v 12.194909 22.737383 -7.886218
v 13.949387 22.731970 -6.385853
v 13.667542 15.820406 -16.281139
v 12.704593 15.757182 -15.786776
v 12.736055 18.000593 -14.557598
v 14.232212 17.698511 -15.587796
v 15.933376 20.212282 -13.017578
v 14.703672 20.381432 -12.245559
v 16.215534 20.694874 -11.966382
v 15.002209 19.183565 -14.465052
v 13.454258 19.294374 -13.593982
v 20.485884 16.019287 -14.905539
v 19.853464 15.850737 -15.770005
v 18.447432 17.985222 -15.661381
v 19.723860 17.870041 -14.339067
v 17.238298 20.280361 -12.381680
v 16.269791 20.302328 -13.476354
v 16.205635 20.695322 -11.958674
v 18.607443 19.309589 -13.478746
v 17.496565 19.243774 -14.867562
v 20.149803 15.270916 -9.977824
v 20.461876 15.013252 -10.983749
v 19.970407 17.241768 -12.140009
v 19.599207 17.244535 -10.336331
v 17.058733 20.134974 -11.341506
v 17.402294 20.053501 -12.760001
v 16.212179 20.695026 -11.963770
v 18.537916 18.890593 -10.808549
v 19.023066 18.685720 -12.508505
v 15.804853 15.795911 -6.973854
v 16.857504 15.539820 -7.018708
v 17.739902 17.662754 -8.140886
v 15.924237 17.685858 -7.834498
v 15.918765 20.251381 -10.873755
v 17.366001 20.159966 -11.058003
v 16.187906 20.696125 -11.944871
v 15.967272 19.191648 -9.172249
v 17.729094 18.983433 -9.313037
v 14.048644 18.155210 -19.212997
v 12.783735 18.975000 -18.156363
v 14.341640 18.589176 -18.744228
v 16.096949 20.351389 -15.881038
v 15.253171 19.722525 -17.298010
v 13.376942 20.221945 -16.511684
v 14.107893 20.887697 -15.019314
v 16.959066 20.598604 -13.146825
v 15.501430 20.981047 -12.573575
v 16.542828 20.683205 -12.034996
v 23.684685 17.317118 -13.313851
v 22.713345 17.758293 -14.813980
v 23.224306 17.832146 -13.184569
v 21.794802 19.227089 -12.718127
v 21.102726 19.173698 -14.694524
v 19.613806 20.070185 -14.265442
v 20.375269 20.119392 -12.166802
v 17.623487 20.692301 -11.550561
v 17.123158 20.644382 -13.082539
v 16.532991 20.683651 -12.027339
v 20.064575 18.824507 -5.085470
v 21.141392 18.788464 -6.578016
v 19.816532 19.238527 -5.596332
v 18.970716 20.338329 -7.106943
v 20.554302 19.811167 -8.372769
v 19.684713 20.412508 -9.817375
v 18.012217 20.970982 -8.447193
v 16.488810 21.011499 -10.888068
v 17.728857 20.604614 -11.834804
v 16.537834 20.683432 -12.031109
v 11.732303 19.363777 -5.731469
v 13.534026 19.474436 -5.370818
v 12.073709 19.737040 -6.219360
v 13.044174 20.701752 -7.747247
v 14.873297 20.398235 -6.772491
v 15.801268 20.866327 -8.230037
v 13.839027 21.188696 -9.246025
v 15.438406 21.006165 -11.631177
v 16.829866 20.774502 -10.850313
v 16.517872 20.684338 -12.015566
v 16.572033 20.681372 -12.087698
v 15.557831 21.478477 -13.340775
v 14.422348 21.586931 -11.978790
v 9.699884 21.031935 -17.728638
v 8.318063 20.973763 -16.554256
v 10.031630 21.656614 -14.686225
v 11.576759 21.734087 -16.347534
v 11.635847 22.036146 -13.388702
v 13.083557 22.043287 -15.325125
v 8.638538 20.892164 -17.626389
v 16.572033 20.681372 -12.087698
v 17.560389 21.413223 -13.399847
v 15.972055 21.499575 -14.190939
v 20.457241 20.646587 -20.092293
v 18.992533 20.552942 -21.158993
v 17.581240 21.339476 -19.089750
v 19.557673 21.450281 -17.978531
v 16.696756 21.808144 -17.246069
v 18.917418 21.839695 -16.290398
v 20.109150 20.465158 -21.093473
v 16.572033 20.681372 -12.087698
v 18.033022 21.432829 -11.356252
v 18.560072 21.435905 -13.052806
v 25.095196 20.677437 -9.533247
v 25.912270 20.501335 -11.143641
v 23.651623 21.261240 -12.240982
v 22.872824 21.477631 -10.119657
v 21.694839 21.722750 -12.840260
v 21.107918 21.867945 -10.499301
v 26.025726 20.463600 -10.028053
v 16.572033 20.681372 -12.087698
v 15.824326 21.515186 -10.680618
v 17.510197 21.519482 -10.120347
v 13.853310 21.138590 -3.627849
v 15.444620 20.979628 -2.770848
v 16.597313 21.610022 -5.043743
v 14.495121 21.818640 -5.874789
v 17.241531 21.964848 -7.008482
v 14.914942 22.115135 -7.648826
v 14.326591 20.964003 -2.678128
v 12.439112 21.478432 -18.106407
v 10.892345 20.926527 -18.994181
v 9.739309 20.970930 -17.920921
v 11.775165 21.873831 -16.320278
v 13.476519 21.912453 -17.160030
v 16.915440 21.152945 -13.293872
v 15.459639 21.484182 -12.343213
v 16.727840 20.679081 -11.928523
v 15.005783 22.131901 -15.745461
v 13.598832 22.291744 -14.180794
v 22.177780 21.182287 -17.148041
v 22.810471 20.547699 -18.785791
v 21.572641 20.559969 -19.760975
v 20.314764 21.578978 -17.547075
v 21.407368 21.677763 -15.998611
v 18.110601 21.137039 -11.975037
v 16.950136 21.420404 -13.281120
v 16.727840 20.679081 -11.928523
v 20.248089 21.988611 -14.281853
v 18.486774 22.113543 -15.437452
v 22.542665 21.340889 -7.138091
v 24.234692 20.708195 -6.666957
v 25.061760 20.648008 -8.006990
v 22.730228 21.646034 -9.050977
v 21.318338 21.820196 -7.794987
v 16.937691 21.198353 -10.583073
v 18.105438 21.406891 -11.896735
v 16.727840 20.679081 -11.928523
v 19.483791 22.107004 -8.764516
v 20.431412 22.132607 -10.649882
v 8.967211 22.301979 -14.025162
v 7.620625 21.872940 -14.002894
v 7.566995 21.992502 -11.929754
v 8.594845 22.335644 -12.120064
v 7.083678 21.763294 -13.148365
v 15.442231 21.519197 -12.926829
v 15.249905 21.551786 -11.187609
v 16.521549 20.687723 -11.809590
v 13.009769 22.575148 -11.391969
v 13.514943 22.425510 -13.591240
v 11.101629 22.667593 -14.049756
v 10.524792 22.749454 -11.815954
v 15.312308 22.002794 -19.644829
v 14.717154 21.528997 -20.836119
v 12.819107 21.686571 -20.006859
v 13.430232 22.060528 -19.171919
v 13.714967 21.417742 -20.953592
v 17.074978 21.460581 -13.293137
v 15.419672 21.520132 -12.728018
v 16.521549 20.687723 -11.809590
v 14.653236 22.463076 -14.879917
v 16.857681 22.288280 -15.353472
v 16.245035 22.439791 -17.739815
v 13.978613 22.545105 -17.313725
v 23.547182 21.808313 -15.546886
v 24.478111 21.290020 -16.475655
v 23.078531 21.391434 -18.007311
v 22.489277 21.803862 -17.174770
v 24.263287 21.138819 -17.456238
v 18.108692 21.452826 -11.799696
v 17.037195 21.460487 -13.183451
v 16.521549 20.687723 -11.809590
v 18.829000 22.333105 -14.644686
v 19.991505 22.232758 -12.707444
v 22.050564 22.316032 -14.066219
v 20.912447 22.343727 -16.074512
vn 0.1659 0.9600 0.2258
vn 0.2097 0.9378 0.2766
vn 0.2099 0.9376 0.2772
vn 0.1755 0.9554 0.2377
vn 0.2048 0.9431 0.2618
vn -0.2196 0.8942 -0.3901
vn -0.2243 0.8903 -0.3963
vn -0.2817 0.8336 -0.4751
vn -0.0951 0.9773 -0.1892
vn -0.1003 0.9750 -0.1981
vn 0.0496 0.9974 0.0520
vn 0.0617 0.9955 0.0713
vn -0.3867 0.9091 -0.1550
vn -0.3268 0.9337 -0.1466
vn -0.3495 0.9249 -0.1497
vn 0.0530 0.9918 -0.1163
vn -0.2079 0.9686 -0.1367
vn -0.2016 0.9700 -0.1361
vn 0.0553 0.9917 -0.1160
vn 0.2783 0.9560 -0.0929
vn 0.2762 0.9566 -0.0930
vn 0.3941 0.9160 -0.0753
vn 0.4264 0.8780 -0.2173
vn 0.2943 0.9450 -0.1430
vn 0.2527 0.9601 -0.1196
vn -0.1977 0.9726 0.1223
vn -0.1958 0.9731 0.1214
vn -0.1695 0.9783 0.1191
vn -0.1651 0.9792 0.1179
vn 0.0166 0.9996 0.0218
vn 0.0238 0.9996 0.0173
vn -0.1347 0.9865 0.0931
vn -0.2995 0.9538 0.0238
vn -0.2995 0.9538 0.0239
vn -0.2236 0.9746 0.0137
vn -0.1815 0.9834 0.0080
vn 0.4062 0.9025 -0.1430
vn 0.3867 0.9110 -0.1431
vn 0.5455 0.8263 -0.1401
vn 0.0897 0.9935 -0.0701
vn 0.1127 0.9906 -0.0780
vn -0.7958 0.5723 0.1981
vn -0.7958 0.5723 0.1980
vn -0.6895 0.7065 0.1597
vn -0.7146 0.6790 0.1685
vn -0.3114 0.9486 0.0560
vn -0.3256 0.9435 0.0611
vn -0.2379 0.9709 0.0294
vn -0.4886 0.8663 0.1039
vn -0.4981 0.8606 0.1061
vn -0.1365 0.9693 0.2045
vn -0.1654 0.9497 0.2659
vn -0.1659 0.9495 0.2664
vn -0.1435 0.9653 0.2183
vn -0.1538 0.9545 0.2553
vn 0.2715 0.8785 -0.3930
vn 0.2756 0.8742 -0.3998
vn 0.3245 0.8140 -0.4817
vn 0.1384 0.9696 -0.2017
vn 0.1444 0.9670 -0.2099
vn -0.0240 0.9994 0.0269
vn -0.0369 0.9983 0.0458
vn -0.4450 0.4306 -0.7852
vn -0.3776 0.5798 -0.7219
vn -0.3934 0.5486 -0.7377
vn -0.1657 0.8803 -0.4445
vn -0.1749 0.8730 -0.4552
vn -0.1179 0.9141 -0.3880
vn -0.2650 0.7701 -0.5803
vn -0.2699 0.7629 -0.5875
vn 0.6631 0.4607 -0.5900
vn 0.5981 0.6086 -0.5215
vn 0.6139 0.5777 -0.5380
vn 0.3315 0.8997 -0.2839
vn 0.3413 0.8927 -0.2944
vn 0.2805 0.9320 -0.2295
vn 0.4594 0.7941 -0.3978
vn 0.4664 0.7872 -0.4035
vn 0.9321 0.3027 0.1986
vn 0.9321 0.3028 0.1986
vn 0.8671 0.4646 0.1797
vn 0.8837 0.4303 0.1843
vn 0.5782 0.8113 0.0867
vn 0.5909 0.8018 0.0891
vn 0.5114 0.8561 0.0747
vn 0.7229 0.6785 0.1305
vn 0.7301 0.6702 0.1332
vn 0.1500 0.4076 0.9008
vn 0.1428 0.5608 0.8155
vn 0.1447 0.5287 0.8364
vn 0.1221 0.8712 0.4756
vn 0.1246 0.8632 0.4892
vn 0.1088 0.9081 0.4044
vn 0.1348 0.7563 0.6402
vn 0.1349 0.7489 0.6488
vn -0.0618 0.7514 -0.6570
vn -0.0387 0.7908 -0.6108
vn -0.0476 0.7766 -0.6282
vn 0.1264 0.9459 -0.2989
vn 0.0124 0.8557 -0.5173
vn 0.0151 0.8586 -0.5124
vn 0.1272 0.9465 -0.2965
vn 0.2195 0.9714 -0.0907
vn 0.2188 0.9714 -0.0927
vn 0.2629 0.9645 0.0250
vn 0.6907 0.6795 -0.2474
vn 0.6451 0.7256 -0.2395
vn 0.6625 0.7088 -0.2424
vn 0.5530 0.8052 -0.2140
vn 0.5481 0.8089 -0.2126
vn 0.3322 0.9325 -0.1419
vn 0.3341 0.9317 -0.1426
vn 0.1244 0.9896 -0.0716
vn 0.1262 0.9894 -0.0719
vn 0.0067 0.9994 -0.0334
vn 0.5298 0.7662 0.3637
vn 0.5094 0.8016 0.3128
vn 0.5171 0.7889 0.3321
vn 0.4584 0.8619 0.2167
vn 0.4555 0.8647 0.2118
vn 0.3213 0.9470 0.0068
vn 0.3224 0.9466 0.0085
vn 0.1847 0.9674 -0.1733
vn 0.1859 0.9674 -0.1718
vn 0.1078 0.9568 -0.2700
vn -0.1570 0.8343 0.5284
vn -0.1209 0.8664 0.4845
vn -0.1346 0.8549 0.5010
vn -0.0575 0.9186 0.3911
vn -0.0543 0.9209 0.3860
vn 0.0730 0.9828 0.1696
vn 0.0720 0.9825 0.1717
vn 0.1804 0.9831 -0.0303
vn 0.1793 0.9834 -0.0286
vn 0.2375 0.9615 -0.1380
vn 0.3865 0.8873 0.2516
vn 0.2614 0.9512 0.1639
vn 0.2220 0.9655 0.1364
vn -0.1950 0.9677 -0.1597
vn -0.1933 0.9683 -0.1584
vn -0.1795 0.9743 -0.1361
vn -0.1765 0.9753 -0.1327
vn -0.0095 0.9999 -0.0136
vn -0.0024 1.0000 -0.0092
vn -0.1407 0.9831 -0.1169
vn -0.1473 0.9069 0.3948
vn -0.0907 0.9640 0.2500
vn -0.0730 0.9761 0.2047
vn 0.1177 0.9558 -0.2693
vn 0.1167 0.9565 -0.2675
vn 0.0984 0.9634 -0.2492
vn 0.0958 0.9647 -0.2455
vn 0.0190 0.9982 -0.0566
vn 0.0164 0.9987 -0.0487
vn 0.0888 0.9742 -0.2074
vn -0.4041 0.9063 -0.1239
vn -0.2515 0.9633 -0.0938
vn -0.2039 0.9754 -0.0842
vn 0.2944 0.9552 0.0291
vn 0.2924 0.9559 0.0285
vn 0.2715 0.9623 0.0129
vn 0.2674 0.9635 0.0109
vn 0.0691 0.9970 -0.0361
vn 0.0608 0.9974 -0.0374
vn 0.2288 0.9734 0.0097
vn 0.1459 0.8832 -0.4458
vn 0.1138 0.9481 -0.2968
vn 0.1034 0.9627 -0.2501
vn -0.0198 0.9690 0.2462
vn -0.0191 0.9695 0.2442
vn -0.0031 0.9747 0.2233
vn -0.0010 0.9757 0.2192
vn 0.0504 0.9985 0.0205
vn 0.0519 0.9986 0.0122
vn 0.0012 0.9836 0.1802
vn -0.1853 0.9451 -0.2690
vn -0.1348 0.9679 -0.2122
vn -0.1068 0.9778 -0.1804
vn 0.3438 0.9109 0.2283
vn 0.3331 0.9188 0.2117
vn 0.4184 0.8387 0.3486
vn 0.1082 0.9941 0.0018
vn 0.1275 0.9917 0.0167
vn 0.2470 0.9313 -0.2677
vn 0.2469 0.9313 -0.2678
vn 0.1988 0.9572 -0.2103
vn 0.1719 0.9689 -0.1782
vn -0.1631 0.9289 0.3325
vn -0.1483 0.9361 0.3191
vn -0.2711 0.8622 0.4280
vn 0.0252 0.9978 0.0612
vn 0.0134 0.9965 0.0827
vn 0.3050 0.9369 0.1709
vn 0.2427 0.9616 0.1284
vn 0.2078 0.9725 0.1048
vn -0.3383 0.9260 -0.1676
vn -0.3232 0.9336 -0.1547
vn -0.4463 0.8561 -0.2608
vn -0.0465 0.9988 -0.0149
vn -0.0692 0.9973 -0.0241
vn -0.2411 0.9680 -0.0699
vn -0.3090 0.9486 -0.0682
vn -0.3096 0.9484 -0.0684
vn -0.2565 0.9640 -0.0700
vn -0.2944 0.9536 -0.0626
vn 0.4747 0.8793 0.0374
vn 0.4826 0.8750 0.0385
vn 0.5775 0.8149 0.0486
vn 0.2448 0.9696 -0.0016
vn 0.2547 0.9670 0.0004
vn -0.0320 0.9983 -0.0480
vn -0.0546 0.9972 -0.0513
vn -0.0366 0.9578 -0.2852
vn -0.0671 0.9361 -0.3452
vn -0.0672 0.9359 -0.3458
vn -0.0431 0.9532 -0.2991
vn -0.0659 0.9418 -0.3298
vn 0.1710 0.8954 0.4110
vn 0.1735 0.8914 0.4187
vn 0.2045 0.8348 0.5112
vn 0.1086 0.9771 0.1830
vn 0.1110 0.9749 0.1929
vn 0.0329 0.9956 -0.0881
vn 0.0261 0.9936 -0.1099
vn 0.2632 0.9502 -0.1671
vn 0.3099 0.9263 -0.2145
vn 0.3105 0.9260 -0.2147
vn 0.2742 0.9452 -0.1775
vn 0.2958 0.9322 -0.2085
vn -0.3286 0.9088 0.2573
vn -0.3348 0.9050 0.2624
vn -0.4124 0.8514 0.3241
vn -0.1324 0.9838 0.1211
vn -0.1410 0.9819 0.1267
vn 0.0995 0.9943 -0.0391
vn 0.1180 0.9916 -0.0525
vt 0.363151 0.781604
vt 0.348331 0.888587
vt 0.170411 0.873167
vt 0.196506 0.793696
vt 0.270046 0.924171
vt 0.336470 0.225538
vt 0.185831 0.224352
vt 0.253440 0.098621
vt 0.178714 0.435484
vt 0.372054 0.412947
vt 0.386287 0.614591
vt 0.189389 0.640685
vt 0.973016 0.892115
vt 0.825157 0.839956
vt 0.972238 0.836397
vt 0.982913 0.529189
vt 0.974610 0.673897
vt 0.794317 0.671525
vt 0.790759 0.524444
vt 0.959190 0.283659
vt 0.820413 0.284845
vt 0.890394 0.207746
vt 0.725522 0.103366
vt 0.765850 0.252819
vt 0.614025 0.270611
vt 0.807365 0.864864
vt 0.657912 0.908751
vt 0.602164 0.702364
vt 0.583186 0.535119
vt 0.750431 0.936032
vt 0.573695 0.768787
vt 0.541671 0.914682
vt 0.406452 0.925357
vt 0.420685 0.711853
vt 0.572737 0.655561
vt 0.529810 0.213677
vt 0.383915 0.257564
vt 0.433733 0.133019
vt 0.571324 0.488860
vt 0.389846 0.490046
vt 0.180486 0.842485
vt 0.088567 0.856562
vt 0.017400 0.664408
vt 0.175155 0.679828
vt 0.168039 0.340593
vt 0.042308 0.335848
vt 0.139571 0.242144
vt 0.170411 0.512582
vt 0.017400 0.517327
s 1
usemtl Palme_Blaetter
f 1/1/1 2/2/2 3/3/3
f 1/1/1 3/3/3 4/4/4
f 3/3/3 2/2/2 5/5/5
f 6/6/6 7/7/7 8/8/8
f 9/9/9 7/7/7 6/6/6
f 9/9/9 6/6/6 10/10/10
f 9/9/9 10/10/10 11/11/11
f 12/12/12 9/9/9 11/11/11
f 11/11/11 1/1/1 4/4/4
f 11/11/11 4/4/4 12/12/12
f 13/13/13 14/14/14 15/15/15
f 16/16/16 17/17/17 18/18/18
f 16/16/16 18/18/18 19/19/19
f 20/20/20 21/21/21 22/22/22
f 21/21/21 20/20/20 16/16/16
f 19/19/19 21/21/21 16/16/16
f 17/17/17 15/15/15 14/14/14
f 17/17/17 14/14/14 18/18/18
f 23/23/23 24/24/24 25/25/25
f 26/26/26 27/27/27 28/28/28
f 29/18/29 26/26/26 28/28/28
f 29/18/29 28/28/28 30/29/30
f 31/19/31 29/18/29 30/29/30
f 30/29/30 25/25/25 24/24/24
f 30/29/30 24/24/24 31/19/31
f 27/27/27 26/26/26 32/30/32
f 33/31/33 34/32/33 35/33/34
f 33/31/33 35/33/34 36/34/35
f 37/35/36 33/31/33 36/34/35
f 38/36/37 39/37/38 40/38/39
f 39/37/38 38/36/37 41/39/40
f 42/40/41 39/37/38 41/39/40
f 37/35/36 36/34/35 42/40/41
f 41/39/40 37/35/36 42/40/41
f 43/41/42 44/42/43 45/43/44
f 46/44/45 43/41/42 45/43/44
f 47/45/46 48/46/47 49/47/48
f 50/48/49 51/49/50 48/46/47
f 47/45/46 50/48/49 48/46/47
f 50/48/49 46/44/45 45/43/44
f 50/48/49 45/43/44 51/49/50
f 52/1/51 53/2/52 54/3/53
f 52/1/51 54/3/53 55/4/54
f 54/3/53 53/2/52 56/5/55
f 57/6/56 58/7/57 59/8/58
f 60/9/59 58/7/57 57/6/56
f 60/9/59 57/6/56 61/10/60
f 60/9/59 61/10/60 62/11/61
f 63/12/62 60/9/59 62/11/61
f 62/11/61 52/1/51 55/4/54
f 62/11/61 55/4/54 63/12/62
f 64/41/63 65/42/63 66/43/64
f 67/44/65 64/41/63 66/43/64
f 68/45/66 69/46/67 70/47/68
f 68/45/66 71/48/69 72/49/70
f 68/45/66 72/49/70 69/46/67
f 71/48/69 67/44/65 66/43/64
f 71/48/69 66/43/64 72/49/70
f 73/41/71 74/42/71 75/43/72
f 76/44/73 73/41/71 75/43/72
f 77/45/74 78/46/75 79/47/76
f 80/48/77 81/49/78 78/46/75
f 77/45/74 80/48/77 78/46/75
f 80/48/77 76/44/73 75/43/72
f 80/48/77 75/43/72 81/49/78
f 82/41/79 83/42/80 84/43/81
f 85/44/82 82/41/79 84/43/81
f 86/45/83 87/46/84 88/47/85
f 89/48/86 90/49/87 87/46/84
f 86/45/83 89/48/86 87/46/84
f 89/48/86 85/44/82 84/43/81
f 89/48/86 84/43/81 90/49/87
f 91/41/88 92/42/88 93/43/89
f 94/44/90 91/41/88 93/43/89
f 95/45/91 96/46/92 97/47/93
f 98/48/94 99/49/95 96/46/92
f 95/45/91 98/48/94 96/46/92
f 98/48/94 94/44/90 93/43/89
f 98/48/94 93/43/89 99/49/95
f 100/13/96 101/14/97 102/15/98
f 103/16/99 104/17/100 105/18/101
f 103/16/99 105/18/101 106/19/102
f 107/20/103 108/21/104 109/22/105
f 107/20/103 103/16/99 106/19/102
f 108/21/104 107/20/103 106/19/102
f 104/17/100 102/15/98 101/14/97
f 104/17/100 101/14/97 105/18/101
f 110/13/106 111/14/107 112/15/108
f 113/17/109 114/18/110 115/19/111
f 116/16/112 113/17/109 115/19/111
f 117/20/113 118/21/114 119/22/115
f 116/16/112 115/19/111 118/21/114
f 117/20/113 116/16/112 118/21/114
f 112/15/108 111/14/107 114/18/110
f 113/17/109 112/15/108 114/18/110
f 120/13/116 121/14/117 122/15/118
f 123/17/119 124/18/120 125/19/121
f 126/16/122 123/17/119 125/19/121
f 127/20/123 128/21/124 129/22/125
f 126/16/122 125/19/121 128/21/124
f 126/16/122 128/21/124 127/20/123
f 122/15/118 121/14/117 124/18/120
f 123/17/119 122/15/118 124/18/120
f 130/13/126 131/14/127 132/15/128
f 133/17/129 134/18/130 135/19/131
f 136/16/132 133/17/129 135/19/131
f 137/20/133 138/21/134 139/22/135
f 135/19/131 138/21/134 137/20/133
f 136/16/132 135/19/131 137/20/133
f 132/15/128 131/14/127 134/18/130
f 133/17/129 132/15/128 134/18/130
f 140/23/136 141/24/137 142/25/138
f 143/26/139 144/27/140 145/28/141
f 146/18/142 143/26/139 145/28/141
f 146/18/142 145/28/141 147/29/143
f 148/19/144 146/18/142 147/29/143
f 147/29/143 142/25/138 141/24/137
f 147/29/143 141/24/137 148/19/144
f 144/27/140 143/26/139 149/30/145
f 150/23/146 151/24/147 152/25/148
f 153/26/149 154/27/150 155/28/151
f 156/18/152 153/26/149 155/28/151
f 156/18/152 155/28/151 157/29/153
f 158/19/154 156/18/152 157/29/153
f 157/29/153 152/25/148 151/24/147
f 157/29/153 151/24/147 158/19/154
f 154/27/150 153/26/149 159/30/155
f 160/23/156 161/24/157 162/25/158
f 163/26/159 164/27/160 165/28/161
f 166/18/162 163/26/159 165/28/161
f 166/18/162 165/28/161 167/29/163
f 168/19/164 166/18/162 167/29/163
f 167/29/163 162/25/158 161/24/157
f 167/29/163 161/24/157 168/19/164
f 164/27/160 163/26/159 169/30/165
f 170/23/166 171/24/167 172/25/168
f 173/26/169 174/27/170 175/28/171
f 176/18/172 173/26/169 175/28/171
f 176/18/172 175/28/171 177/29/173
f 178/19/174 176/18/172 177/29/173
f 177/29/173 172/25/168 171/24/167
f 177/29/173 171/24/167 178/19/174
f 174/27/170 173/26/169 179/30/175
f 180/31/176 181/32/176 182/33/176
f 180/31/176 182/33/176 183/34/177
f 184/35/178 180/31/176 183/34/177
f 185/36/179 186/37/180 187/38/181
f 186/37/180 185/36/179 188/39/182
f 189/40/183 186/37/180 188/39/182
f 184/35/178 183/34/177 189/40/183
f 188/39/182 184/35/178 189/40/183
f 190/31/184 191/32/185 192/33/184
f 190/31/184 192/33/184 193/34/186
f 194/35/187 190/31/184 193/34/186
f 195/36/188 196/37/189 197/38/190
f 196/37/189 195/36/188 198/39/191
f 199/40/192 196/37/189 198/39/191
f 194/35/187 193/34/186 199/40/192
f 198/39/191 194/35/187 199/40/192
f 200/31/193 201/32/193 202/33/193
f 200/31/193 202/33/193 203/34/194
f 204/35/195 200/31/193 203/34/194
f 205/36/196 206/37/197 207/38/198
f 206/37/197 205/36/196 208/39/199
f 209/40/200 206/37/197 208/39/199
f 204/35/195 203/34/194 209/40/200
f 208/39/199 204/35/195 209/40/200
f 210/1/201 211/2/202 212/3/203
f 210/1/201 212/3/203 213/4/204
f 212/3/203 211/2/202 214/5/205
f 215/6/206 216/7/207 217/8/208
f 218/9/209 216/7/207 215/6/206
f 218/9/209 215/6/206 219/10/210
f 218/9/209 219/10/210 220/11/211
f 221/12/212 218/9/209 220/11/211
f 220/11/211 210/1/201 213/4/204
f 220/11/211 213/4/204 221/12/212
f 222/1/213 223/2/214 224/3/215
f 222/1/213 224/3/215 225/4/216
f 224/3/215 223/2/214 226/5/217
f 227/6/218 228/7/219 229/8/220
f 230/9/221 228/7/219 227/6/218
f 230/9/221 227/6/218 231/10/222
f 230/9/221 231/10/222 232/11/223
f 233/12/224 230/9/221 232/11/223
f 232/11/223 222/1/213 225/4/216
f 232/11/223 225/4/216 233/12/224
f 234/1/225 235/2/226 236/3/227
f 234/1/225 236/3/227 237/4/228
f 236/3/227 235/2/226 238/5/229
f 239/6/230 240/7/231 241/8/232
f 242/9/233 240/7/231 239/6/230
f 242/9/233 239/6/230 243/10/234
f 242/9/233 243/10/234 244/11/235
f 245/12/236 242/9/233 244/11/235
f 244/11/235 234/1/225 237/4/228
f 244/11/235 237/4/228 245/12/236
